# Blender v2.79 (sub 0) OBJ File: 'tree.blend'
# www.blender.org
mtllib bigTree.mtl
o Icosphere.001
v 7.799480 11.211985 2.594884
v 8.555052 17.119932 4.224279
v 4.352931 13.634648 7.109483
v 1.775094 9.897233 2.924204
v 4.384128 11.072771 -2.547645
v 8.574332 15.536618 -1.744104
v 2.997615 19.456526 5.560657
v -1.192590 14.992679 4.757115
v -1.173309 13.409365 -1.211268
v 3.028812 16.894648 -4.096471
v 5.606649 20.632065 0.088807
v -0.417738 19.317312 0.418128
vt 0.981882 0.077097
vt 0.718600 0.201851
vt 0.752119 0.000000
vt 0.981882 0.326599
vt 0.000000 0.152789
vt 0.214969 0.050930
vt 0.173916 0.298148
vt 0.759656 0.949070
vt 0.718600 0.701852
vt 1.000000 0.796283
vt 1.000000 0.999999
vt 0.752120 0.403704
vt 0.718600 0.701852
vt 0.718600 0.905571
vt 0.478252 0.752782
vt 0.455317 0.203719
vt 0.718600 0.498133
vt 0.718600 0.701852
vt 0.478252 0.650922
vt 0.437199 1.000000
vt 0.455317 0.000000
vt 0.388891 0.400003
vt 0.033518 0.400003
vt 0.263283 0.477104
vt 0.000000 0.601855
vt 0.437199 0.403704
vt 0.718600 0.326602
vt 0.488839 0.403704
vt 0.455317 0.201851
vt 0.718600 0.077101
vt 0.488843 0.000000
vt 0.263283 0.726606
vt 0.033519 0.803707
vn 0.6882 -0.2734 0.6721
vn 0.9897 -0.1375 0.0397
vn 0.2039 -0.7893 0.5792
vn 0.2061 -0.9723 -0.1106
vn 0.6918 -0.5694 -0.4440
vn 0.8331 0.5353 -0.1393
vn 0.3452 0.3155 0.8839
vn -0.4384 -0.5192 0.7337
vn 0.3510 -0.1636 -0.9220
vn 0.4348 0.8153 0.3825
vn -0.3510 0.1636 0.9220
vn -0.8331 -0.5353 0.1393
vn -0.3452 -0.3155 -0.8839
vn 0.4384 0.5192 -0.7337
vn -0.2061 0.9723 0.1106
vn -0.6918 0.5694 0.4440
vn -0.9897 0.1375 -0.0397
vn -0.6882 0.2734 -0.6721
vn -0.2039 0.7893 -0.5792
usemtl Material.004
s off
f 1/1/1 2/2/1 3/3/1
f 2/2/2 1/1/2 6/4/2
f 1/5/3 3/6/3 4/7/3
f 1/8/4 4/9/4 5/10/4
f 1/8/5 5/10/5 6/11/5
f 2/2/6 6/4/6 11/12/6
f 3/13/7 2/14/7 7/15/7
f 4/7/8 3/6/8 8/16/8
f 6/17/9 5/18/9 10/19/9
f 2/14/10 11/20/10 7/15/10
f 3/6/11 7/21/11 8/16/11
f 4/7/12 8/16/12 9/22/12
f 5/23/13 9/24/13 10/25/13
f 6/17/14 10/19/14 11/26/14
f 7/27/15 11/28/15 12/29/15
f 8/30/16 7/27/16 12/29/16
f 9/31/17 8/30/17 12/29/17
f 10/25/18 9/24/18 12/32/18
f 11/33/19 10/25/19 12/32/19
o Icosphere
v -7.371521 10.632157 -1.606857
v -4.074824 9.618675 1.043668
v -6.797452 12.844233 2.094194
v -7.854256 14.954848 -1.559477
v -5.784710 13.033643 -4.868070
v -3.448921 9.735737 -3.259212
v -2.520076 13.315011 2.729196
v -4.855865 16.612917 1.120337
v -4.229961 16.729979 -3.182542
v -1.507334 13.504421 -4.233068
v -0.450530 11.393806 -0.579398
v -0.933265 15.716496 -0.532017
vt 0.731856 0.749998
vt 0.999998 0.904504
vt 0.765999 0.999995
vt 0.999998 0.595492
vt 0.034140 0.995419
vt 0.000000 0.745422
vt 0.268144 0.899928
vt 0.497853 0.000000
vt 0.731856 0.095491
vt 0.463712 0.249997
vt 0.765999 0.500000
vt 0.497854 0.500000
vt 0.731856 0.595492
vt 0.463712 0.750003
vt 0.268144 0.590910
vt 0.731856 0.404508
vt 1.000000 0.404508
vt 0.731856 0.249997
vt 0.731856 0.904509
vt 0.034141 0.495419
vt 0.396062 0.000000
vt 0.463712 0.243110
vt 0.177125 0.126158
vt 0.497854 0.500000
vt 1.000000 0.095491
vt 0.497853 1.000000
vt 0.463712 0.495419
vt 0.218934 0.432343
vt 0.000000 0.306184
vt 0.765997 0.000000
vn -0.5867 -0.6518 0.4806
vn -0.2472 -0.9670 -0.0623
vn -0.9700 -0.1107 0.2166
vn -0.8673 -0.0915 -0.4894
vn -0.4206 -0.6207 -0.6617
vn -0.0948 -0.3797 0.9202
vn -0.7149 0.4957 0.4931
vn -0.5487 0.5268 -0.6491
vn 0.1740 -0.3295 -0.9280
vn 0.5487 -0.5268 0.6491
vn -0.1740 0.3295 0.9280
vn -0.4546 0.8897 -0.0419
vn 0.0948 0.3797 -0.9202
vn 0.7149 -0.4957 -0.4931
vn 0.8673 0.0915 0.4894
vn 0.4206 0.6207 0.6617
vn 0.2472 0.9670 0.0623
vn 0.5867 0.6518 -0.4806
vn 0.9700 0.1107 -0.2166
usemtl Material.004
s off
f 13/34/20 14/35/20 15/36/20
f 14/35/21 13/34/21 18/37/21
f 13/38/22 15/39/22 16/40/22
f 13/41/23 16/42/23 17/43/23
f 13/34/24 17/44/24 18/37/24
f 15/45/25 14/46/25 19/47/25
f 16/40/26 15/39/26 20/48/26
f 17/43/27 16/42/27 21/49/27
f 18/50/28 17/44/28 22/51/28
f 14/46/29 23/52/29 19/47/29
f 15/39/30 19/53/30 20/48/30
f 16/54/31 20/55/31 21/56/31
f 17/43/32 21/49/32 22/57/32
f 18/50/33 22/51/33 23/58/33
f 19/47/34 23/52/34 24/59/34
f 20/55/35 19/60/35 24/61/35
f 21/56/36 20/55/36 24/61/36
f 22/62/37 21/56/37 24/61/37
f 23/58/38 22/51/38 24/63/38
o Cylinder
v -0.000000 0.000000 -2.660207
v -0.439449 1.672338 -1.515527
v 1.563630 0.000000 -2.152153
v 0.907322 1.496958 -1.258513
v 2.530007 0.000000 -0.822049
v 1.363541 1.496958 -0.370734
v 2.530007 0.000000 0.822049
v 1.363541 1.496958 0.405431
v 1.563630 0.000000 2.152153
v 0.907322 1.496958 1.033361
v -0.000000 0.000000 2.660207
v -0.439449 1.672338 1.619300
v -1.563631 0.000000 2.152153
v -1.177626 1.672338 1.049828
v -2.530007 0.000000 0.822050
v -1.633844 1.672338 0.421898
v -2.530007 0.000000 -0.822050
v -1.633844 1.672338 -0.354268
v -1.563630 0.000000 -2.152153
v -1.177625 1.672338 -1.242046
v 0.000001 6.574000 -1.316023
v 0.983617 6.774167 -0.941272
v 1.406269 6.774167 -0.359541
v 1.406269 6.774167 0.359518
v 0.983617 6.774167 0.941249
v 0.000001 6.574000 1.413581
v -0.818283 6.901284 1.446194
v -1.487894 6.901284 0.524553
v -1.487894 6.901284 -0.614659
v -0.818282 6.901284 -1.536301
v -0.226276 8.146478 -1.572382
v 1.314538 8.306030 -1.204844
v 1.726738 8.306030 -0.606735
v 1.726738 8.306030 0.416780
v 1.314538 8.306030 1.014889
v -0.226276 8.146478 1.304830
v -1.652448 7.914986 1.095365
v -2.421111 7.914986 0.497257
v -2.421111 7.914986 -0.526259
v -1.652448 7.914986 -1.501455
v -2.336921 9.597977 -1.459604
v -2.336921 9.597977 0.345810
v -2.867519 9.597977 0.173409
v -3.195447 9.597977 -0.277945
v -3.195447 9.597977 -0.835849
v -2.867519 9.597977 -1.287203
v 0.304735 8.913225 -1.283928
v 1.127641 8.807777 -1.020508
v 1.657116 8.849443 -0.330867
v 1.690916 9.022306 0.521576
v 1.123326 9.279037 1.190826
v 0.427875 9.463116 1.156980
v -3.103896 11.084543 -1.129547
v -3.390387 11.084543 0.036912
v -3.705842 11.084543 -0.158672
v -3.846091 11.084543 -0.502324
v -3.757560 11.084543 -0.862779
v -3.474067 11.084543 -1.102357
v 2.013629 12.030574 -0.240110
v 2.570718 11.959188 -0.061781
v 2.929160 11.987394 0.405091
v 2.952042 12.104420 0.982175
v 2.630625 12.265562 1.449047
v 2.087678 12.409274 1.627376
v -0.226276 8.146478 -0.067040
v -1.825367 9.597977 -0.556897
v 0.091561 9.398966 0.201705
v -2.802548 11.084543 -0.437122
v 1.448948 12.337579 0.693633
v 1.422396 13.833108 -1.268853
v 1.097245 13.874773 -1.372937
v 3.603714 15.328611 1.434334
v 3.924266 15.305763 1.623529
v 4.169048 15.183043 1.267974
v 4.151621 15.093920 0.828483
v 3.785702 15.159038 0.797932
v -3.861324 13.232473 -1.486247
v 1.140465 14.095805 -0.282958
v 0.614352 14.098085 -0.760750
v -4.124152 13.232473 -1.062333
v -4.304142 13.232473 -1.174221
v -4.241659 13.232473 -1.428622
v -4.041576 13.232473 -1.597711
v -2.166289 12.905171 -0.481419
v -2.317811 12.905171 0.234171
v -2.453050 12.905171 -0.018905
v -1.937587 12.905171 -0.122296
v -3.289130 10.285671 -1.143425
v -2.710987 10.285671 -1.235027
v -3.429196 10.285671 -0.251687
v -3.504035 10.285671 -0.720311
v -2.624386 10.285671 0.157086
v -3.093200 10.285671 0.083449
v -2.254650 10.285671 -0.679549
v -0.594403 4.763607 -1.332036
v 0.144916 4.547711 -1.260650
v -1.159435 4.763607 -0.484098
v -1.159435 4.763607 0.477192
v -0.594403 4.763607 1.254892
v 0.144916 4.547712 1.387308
v 1.157801 4.632348 0.917349
v 1.559924 4.632348 0.363874
v 1.157801 4.632348 -0.943971
v 1.559924 4.632348 -0.320258
vt 0.657976 0.015043
vt 0.593939 0.080356
vt 0.582186 0.000000
vt 0.083518 0.824322
vt 0.000000 0.839760
vt 0.045698 0.770668
vt 0.061944 0.870343
vt 0.000000 0.924559
vt 0.083518 0.942532
vt 0.045698 0.992675
vt 0.258960 0.681541
vt 0.277618 0.763896
vt 0.221840 0.770667
vt 0.302505 0.667931
vt 0.353763 0.749343
vt 0.345061 0.658536
vt 0.421192 0.732568
vt 0.726867 0.687495
vt 0.792679 0.613969
vt 0.801374 0.678820
vt 0.636543 0.260621
vt 0.593765 0.347664
vt 0.603663 0.242850
vt 0.839411 0.616693
vt 0.875420 0.687495
vt 0.726867 0.027929
vt 0.656522 0.101878
vt 0.541380 0.724140
vt 0.615661 0.973658
vt 0.421192 0.819447
vt 0.323291 0.386635
vt 0.309992 0.338363
vt 0.354407 0.328541
vt 0.804833 0.469648
vt 0.857039 0.364982
vt 0.851310 0.474350
vt 0.754105 0.364982
vt 0.805732 0.358971
vt 0.328940 0.497160
vt 0.276569 0.398260
vt 0.289515 0.506969
vt 0.245545 0.420224
vt 0.223504 0.523003
vt 0.257546 0.523997
vt 0.986066 0.570458
vt 0.954367 0.460294
vt 0.979705 0.462412
vt 0.553943 0.237451
vt 0.544037 0.348299
vt 0.929704 0.570135
vt 0.961959 0.568443
vt 0.898312 0.575060
vt 0.920466 0.462072
vt 0.788269 0.294655
vt 0.765717 0.200996
vt 0.791000 0.198052
vt 0.980072 0.381164
vt 0.592798 0.430473
vt 0.517681 0.424074
vt 0.211782 0.413140
vt 0.243621 0.337926
vt 0.890952 0.467066
vt 0.905655 0.381705
vt 0.843415 0.301992
vt 0.953910 0.379175
vt 0.630376 0.372140
vt 0.956457 0.342613
vt 0.984411 0.332614
vt 0.713663 0.566080
vt 0.698305 0.605163
vt 0.687537 0.561111
vt 0.339283 0.242417
vt 0.365122 0.237479
vt 0.816127 0.200996
vt 0.388003 0.231786
vt 0.189905 0.919068
vt 0.107708 0.859845
vt 0.189904 0.841426
vt 0.660238 0.431246
vt 0.677518 0.523154
vt 0.207561 0.274336
vt 0.148825 0.131655
vt 0.241454 0.267988
vt 0.881635 0.362128
vt 0.916636 0.353839
vt 0.183049 0.338103
vt 0.559848 0.464246
vt 0.520871 0.450956
vt 0.847451 0.687495
vt 0.812161 0.764130
vt 0.789956 0.714307
vt 0.407045 0.150076
vt 0.411357 0.034722
vt 0.421192 0.032638
vt 0.781259 0.159983
vt 0.766380 0.116468
vt 0.783977 0.116003
vt 0.370476 0.200299
vt 0.377012 0.157313
vt 0.394240 0.153664
vt 0.197940 0.911100
vt 0.234442 0.870939
vt 0.226580 0.907383
vt 0.798873 0.119343
vt 0.803496 0.161240
vt 0.391368 0.195441
vt 0.974866 0.173361
vt 0.964295 0.010879
vt 0.984826 0.005091
vt 0.994790 0.166676
vt 0.924213 0.186572
vt 0.947907 0.180961
vt 0.179143 0.288693
vt 0.102540 0.139517
vt 0.447578 0.605848
vt 0.421192 0.596852
vt 0.847451 0.912532
vt 0.873966 0.906297
vt 0.873966 0.945077
vt 0.739605 0.768116
vt 0.726867 0.743727
vt 0.794080 0.874727
vt 0.083518 0.813544
vt 0.189904 0.770668
vt 0.084459 0.149158
vt 0.017117 0.000000
vt 0.847451 0.696993
vt 0.865623 0.866635
vt 0.848372 0.870843
vt 0.360804 0.770668
vt 0.323906 0.894264
vt 0.275121 0.770668
vt 0.421120 0.810052
vt 0.403905 0.814578
vt 0.397330 0.792678
vt 0.166153 0.032710
vt 0.197905 0.025347
vt 1.000000 0.000000
vt 0.812896 0.002357
vt 0.360804 0.875002
vt 0.397330 0.781362
vt 0.397330 0.899495
vt 0.789963 0.000328
vt 0.802382 0.000000
vt 0.411238 0.870972
vt 0.401174 0.871000
vt 0.397330 0.858220
vt 0.715246 0.608411
vt 0.717771 0.722294
vt 0.322786 0.070743
vt 0.305573 0.948716
vt 0.275121 0.910176
vt 0.305573 0.894264
vt 0.824921 0.996917
vt 0.787611 0.993144
vt 0.661568 0.832476
vt 0.721512 0.756683
vt 0.721512 0.888231
vt 0.466813 0.705295
vt 0.417206 0.841339
vt 0.404042 0.818380
vt 0.417206 0.814578
vt 0.714315 0.957050
vt 0.667721 0.888231
vt 0.692849 0.888232
vt 0.267163 0.773764
vt 0.253699 0.875726
vt 0.234190 0.772530
vt 0.252354 0.770668
vt 0.275121 0.943267
vt 0.264108 0.910394
vt 0.189905 0.943267
vt 0.235226 0.939101
vt 0.349224 0.204059
vt 0.700895 0.527526
vt 0.936056 0.732138
vt 0.972649 0.730219
vt 1.000000 0.732505
vt 0.376893 0.650617
vt 0.761270 0.474721
vt 0.061944 0.910376
vt 0.757505 0.618064
vt 0.688816 0.107891
vt 0.467100 0.973658
vt 0.421192 0.904693
vt 0.467100 0.750482
vt 0.615661 0.750482
vt 0.661568 0.819447
vt 0.661568 0.904693
vt 0.541380 1.000000
vt 0.741886 0.300055
vt 0.875420 0.386652
vt 0.083518 0.906664
vt 0.847002 0.744770
vt 0.761088 0.163671
vt 0.200161 0.873393
vt 0.867359 0.870843
vt 0.847451 0.877025
vt 0.000000 0.004796
vt 0.865623 0.687495
vt 0.356188 0.894264
vt 0.403905 0.770668
vt 0.421120 0.774903
vt 0.381382 0.770668
vt 0.401174 0.845408
vt 0.411238 0.845354
vt 0.726867 0.724140
vt 0.312008 0.073603
vt 0.289265 0.948854
vt 0.686525 0.724140
vt 0.482214 0.710546
vt 0.397330 0.845354
vt 0.661568 0.957050
vt 0.891947 0.738171
vn 0.2528 0.5752 -0.7780
vn 0.6610 0.5765 -0.4803
vn 0.7888 0.6147 0.0000
vn 0.6336 0.6218 0.4603
vn 0.2359 0.6460 0.7260
vn -0.2752 0.4549 0.8470
vn -0.7016 0.4979 0.5097
vn -0.8814 0.4723 0.0000
vn 0.0901 -0.0208 -0.9957
vn -0.7217 0.4519 -0.5243
vn -0.2685 0.4951 -0.8263
vn 0.0000 -1.0000 0.0000
vn -0.5394 -0.4779 0.6933
vn -0.8241 -0.1388 -0.5492
vn -0.9884 -0.1519 0.0000
vn -0.8015 -0.1361 0.5823
vn 0.0042 -0.0887 0.9960
vn 0.4196 0.0182 0.9075
vn 0.8076 0.0591 0.5868
vn 0.3506 0.0297 -0.9361
vn 0.9974 0.0716 0.0000
vn 0.8394 0.0503 -0.5412
vn -0.9085 -0.4180 0.0000
vn 0.7928 -0.1990 0.5760
vn 0.2477 -0.2160 -0.9445
vn -0.7357 -0.6773 0.0000
vn 0.4095 0.1215 0.9042
vn 0.7822 -0.2553 -0.5683
vn -0.6797 -0.5423 -0.4938
vn -0.1730 0.1919 0.9660
vn 0.9788 -0.2048 0.0000
vn 0.2098 -0.1278 -0.9693
vn 0.7689 0.0357 0.6384
vn -0.1563 0.0534 -0.9863
vn -0.2962 0.2855 0.9115
vn -0.7057 -0.4387 -0.5563
vn -0.8049 -0.1010 0.5848
vn 0.6721 0.7405 0.0000
vn -0.0504 0.0043 -0.9987
vn -0.8868 0.3614 0.2879
vn 0.7207 0.3850 -0.5765
vn 0.1829 0.0195 0.9829
vn 0.9970 0.0573 -0.0512
vn 0.3247 0.4304 -0.8422
vn -0.9693 0.2460 0.0000
vn -0.5219 0.1513 0.8395
vn -0.9164 -0.3310 -0.2251
vn -0.5214 -0.1450 0.8409
vn 0.6263 0.5857 -0.5145
vn -0.8770 -0.1801 -0.4454
vn -0.8698 -0.3426 0.3550
vn 0.9281 -0.3704 0.0383
vn 0.6854 -0.3986 0.6094
vn 0.7855 -0.1795 -0.5922
vn -0.0784 -0.1140 0.9904
vn 0.9226 -0.3836 0.0412
vn 0.3181 0.1396 -0.9377
vn 0.5097 0.5838 0.6320
vn -0.8221 0.5693 0.0000
vn -0.7957 0.5327 -0.2883
vn 0.5666 0.8240 0.0000
vn 0.2899 -0.0875 0.9531
vn 0.0997 0.0957 -0.9904
vn -0.8405 0.4133 -0.3505
vn 0.1879 0.9611 -0.2024
vn -0.6444 0.2818 0.7109
vn 0.7159 -0.3396 0.6101
vn -0.6099 -0.3276 -0.7216
vn 0.7926 0.3611 0.4914
vn -0.9348 -0.2712 -0.2296
vn 0.0000 1.0000 0.0000
vn -0.0719 -0.1880 -0.9795
vn -0.5051 0.2850 0.8146
vn 0.1879 0.9611 -0.2023
vn -0.7275 -0.5833 -0.3611
vn 0.8238 0.5603 0.0863
vn 0.2259 -0.4259 -0.8761
vn -0.7206 0.5302 -0.4468
vn 0.5715 -0.4135 0.7088
vn 0.8061 -0.2942 -0.5134
vn 0.8203 0.4424 0.3625
vn -0.6823 -0.2580 0.6840
vn -0.7580 -0.3496 -0.5507
vn 0.7918 0.4143 -0.4487
vn -0.1547 0.0781 0.9849
vn -0.9124 -0.4094 0.0000
vn -0.3059 0.1411 -0.9415
vn 0.8397 -0.0439 -0.5413
vn 0.9980 -0.0625 0.0000
vn 0.2921 0.0723 -0.9536
vn 0.8083 -0.0428 0.5872
vn 0.3982 -0.0069 0.9173
vn -0.6096 0.0626 0.7902
vn -0.8038 0.1129 0.5840
vn -0.9884 0.1517 0.0000
vn -0.8240 0.1395 -0.5491
vn 0.1146 0.0646 -0.9913
vn 0.2248 0.5899 -0.7755
vn 0.6841 0.6391 -0.3516
vn 0.3911 0.5582 0.7318
vn -0.5091 0.5525 0.6599
vn 0.2338 -0.0682 -0.9699
vn -0.7612 0.5173 -0.3912
vn -0.2991 0.5085 -0.8074
vn -0.7343 -0.4196 0.5335
vn -0.7988 -0.1582 -0.5804
vn -0.1836 -0.0259 0.9827
vn 0.4286 0.0248 0.9031
vn 0.2988 -0.0047 -0.9543
vn 0.8072 0.0664 -0.5865
vn 0.8084 -0.1899 0.5571
vn 0.3715 -0.0971 -0.9233
vn 0.1931 -0.0887 0.9772
vn 0.7938 -0.2656 -0.5471
vn -0.6528 -0.5561 -0.5145
vn 0.0712 0.0790 0.9943
vn -0.0487 -0.0058 -0.9988
vn 0.8227 -0.0418 0.5670
vn -0.0732 0.0343 -0.9967
vn -0.1898 0.3340 0.9233
vn -0.7292 -0.4330 -0.5298
vn -0.6141 -0.0110 0.7892
vn 0.5296 0.7934 -0.3001
vn -0.3074 -0.1015 -0.9461
vn -0.7827 0.3599 0.5078
vn 0.7320 0.4580 -0.5045
vn -0.0993 -0.1959 0.9756
vn 0.9919 0.1271 0.0000
vn 0.2052 0.2169 -0.9544
vn -0.8502 0.4526 0.2689
vn -0.9257 -0.0213 0.3778
vn -0.8951 -0.4223 0.1430
vn -0.1552 -0.0002 0.9879
vn 0.8189 0.4498 -0.3564
vn -0.6109 -0.3228 -0.7229
vn -0.6712 -0.3108 0.6729
vn 0.6376 -0.3625 0.6798
vn 0.2545 -0.2100 0.9440
vn 0.8166 0.4505 0.3609
vn -0.9313 0.2850 -0.2268
vn -0.7078 0.4218 -0.5667
vn 0.5780 0.7474 0.3276
vn -0.4931 0.1608 0.8550
vn 0.7895 -0.1392 -0.5977
vn -0.8203 0.1609 0.5488
vn 0.5251 -0.0571 -0.8491
vn -0.7987 0.4243 0.4268
vn -0.7645 -0.5854 -0.2699
vn 0.6235 -0.4112 0.6650
vn 0.8707 -0.3135 -0.3789
vn 0.7358 0.5337 0.4170
vn -0.7950 -0.1853 0.5776
vn -0.8482 -0.3082 -0.4308
vn 0.6545 0.5316 -0.5377
vn -0.3064 0.1307 0.9429
vn -0.9344 -0.3233 0.1492
vn -0.1555 0.1099 -0.9817
vn 0.8891 -0.0252 -0.4569
vn 0.1932 0.0476 -0.9800
vn 0.4209 -0.0001 0.9071
vn -0.1444 0.1087 0.9835
vn -0.8834 0.1165 -0.4540
vn -0.3472 0.0382 -0.9370
usemtl Material.005
s off
f 25/64/39 28/65/39 27/66/39
f 28/67/40 29/68/40 27/69/40
f 30/70/41 31/71/41 29/68/41
f 31/71/42 34/72/42 33/73/42
f 34/74/43 35/75/43 33/76/43
f 36/77/44 37/78/44 35/75/44
f 38/79/45 39/80/45 37/78/45
f 39/81/46 42/82/46 41/83/46
f 119/84/47 45/85/47 120/86/47
f 41/83/48 44/87/48 43/88/48
f 43/89/49 26/90/49 25/64/49
f 31/91/50 39/92/50 27/93/50
f 52/94/51 61/95/51 62/96/51
f 121/97/52 54/98/52 119/99/52
f 121/97/53 52/100/53 53/101/53
f 122/102/54 51/103/54 52/94/54
f 123/104/55 50/105/55 51/103/55
f 125/106/56 50/105/56 124/107/56
f 125/108/57 48/109/57 49/110/57
f 127/111/58 45/85/58 46/112/58
f 128/113/59 48/109/59 126/114/59
f 127/115/60 47/116/60 128/113/60
f 63/117/61 68/118/61 69/119/61
f 48/109/62 59/120/62 49/110/62
f 46/112/63 55/121/63 56/122/63
f 52/100/64 63/117/64 53/101/64
f 49/123/65 60/124/65 50/105/65
f 46/125/66 57/126/66 47/116/66
f 53/101/67 64/127/67 54/98/67
f 51/103/68 60/124/68 61/95/68
f 47/116/69 58/128/69 48/109/69
f 54/129/70 55/121/70 45/85/70
f 59/120/71 74/130/71 75/131/71
f 112/132/72 77/133/72 113/134/72
f 61/95/73 66/135/73 67/136/73
f 63/117/74 70/137/74 64/127/74
f 62/96/75 67/136/75 68/138/75
f 55/139/76 90/140/76 89/141/76
f 64/142/77 65/143/77 55/121/77
f 76/144/78 93/145/78 91/146/78
f 57/126/79 72/147/79 73/148/79
f 59/149/80 76/144/80 60/124/80
f 58/128/81 73/148/81 74/130/81
f 56/122/82 71/150/82 72/151/82
f 60/152/83 91/153/83 89/154/83
f 80/155/84 104/156/84 105/157/84
f 115/158/85 80/159/85 81/160/85
f 117/161/86 78/162/86 79/163/86
f 113/164/87 92/165/87 118/166/87
f 115/158/88 82/167/88 112/168/88
f 114/169/89 79/163/89 80/155/89
f 86/170/90 99/171/90 98/172/90
f 75/131/91 86/170/91 87/173/91
f 73/148/92 84/174/92 85/175/92
f 75/176/93 88/177/93 76/144/93
f 74/130/94 85/175/94 86/170/94
f 72/151/95 83/178/95 84/179/95
f 116/180/96 92/181/96 78/182/96
f 89/154/97 71/183/97 55/184/97
f 91/153/98 83/185/98 71/183/98
f 89/141/99 66/186/99 60/187/99
f 87/188/100 96/189/100 88/177/100
f 85/190/101 100/191/101 99/192/101
f 88/193/102 100/194/102 84/195/102
f 96/196/103 97/197/103 98/198/103
f 93/145/104 102/199/104 103/200/104
f 87/173/105 98/172/105 97/201/105
f 81/160/106 107/202/106 82/167/106
f 77/203/107 104/204/107 79/205/107
f 81/160/108 105/206/108 106/207/108
f 101/208/109 107/209/109 106/210/109
f 82/211/110 101/212/110 77/133/110
f 78/162/111 110/213/111 79/163/111
f 94/214/112 103/215/112 102/216/112
f 83/185/113 103/217/113 95/218/113
f 84/219/114 102/220/114 88/221/114
f 83/178/115 94/222/115 84/179/115
f 111/223/109 110/224/109 109/225/109
f 77/226/116 110/227/116 108/228/116
f 92/165/117 109/229/117 78/230/117
f 92/165/118 108/231/118 111/232/118
f 66/233/119 118/166/119 116/234/119
f 68/138/120 117/161/120 114/169/120
f 69/119/121 112/168/121 70/137/121
f 65/235/122 118/166/122 90/236/122
f 67/136/123 116/237/123 117/161/123
f 68/118/124 115/158/124 69/119/124
f 70/238/125 113/134/125 65/143/125
f 30/239/126 127/115/126 128/113/126
f 32/240/127 128/113/127 126/114/127
f 28/65/128 120/86/128 127/111/128
f 32/240/129 125/108/129 34/241/129
f 34/74/130 124/107/130 36/77/130
f 36/77/131 123/104/131 38/79/131
f 38/79/132 122/102/132 40/242/132
f 42/82/133 122/243/133 121/97/133
f 44/87/134 121/97/134 119/99/134
f 26/90/135 119/84/135 120/86/135
f 25/64/136 26/90/136 28/65/136
f 28/67/137 30/70/137 29/68/137
f 30/70/41 32/244/41 31/71/41
f 31/71/42 32/244/42 34/72/42
f 34/74/138 36/77/138 35/75/138
f 36/77/139 38/79/139 37/78/139
f 38/79/45 40/242/45 39/80/45
f 39/81/46 40/245/46 42/82/46
f 119/84/140 54/129/140 45/85/140
f 41/83/141 42/82/141 44/87/141
f 43/89/142 44/246/142 26/90/142
f 43/247/50 25/248/50 27/93/50
f 27/93/50 29/249/50 31/91/50
f 31/91/50 33/250/50 35/251/50
f 35/251/50 37/252/50 39/92/50
f 39/92/50 41/253/50 43/247/50
f 43/247/50 27/93/50 39/92/50
f 31/91/50 35/251/50 39/92/50
f 52/94/143 51/103/143 61/95/143
f 121/97/144 53/101/144 54/98/144
f 121/97/53 122/243/53 52/100/53
f 122/102/54 123/104/54 51/103/54
f 123/104/145 124/107/145 50/105/145
f 125/106/146 49/123/146 50/105/146
f 125/108/57 126/114/57 48/109/57
f 127/111/147 120/86/147 45/85/147
f 128/113/59 47/116/59 48/109/59
f 127/115/148 46/125/148 47/116/148
f 63/117/61 62/254/61 68/118/61
f 48/109/149 58/128/149 59/120/149
f 46/112/150 45/85/150 55/121/150
f 52/100/64 62/254/64 63/117/64
f 49/123/151 59/149/151 60/124/151
f 46/125/152 56/255/152 57/126/152
f 53/101/153 63/117/153 64/127/153
f 51/103/154 50/105/154 60/124/154
f 47/116/69 57/126/69 58/128/69
f 54/129/155 64/142/155 55/121/155
f 59/120/156 58/128/156 74/130/156
f 112/132/157 82/211/157 77/133/157
f 61/95/158 60/124/158 66/135/158
f 63/117/159 69/119/159 70/137/159
f 62/96/160 61/95/160 67/136/160
f 55/139/161 65/256/161 90/140/161
f 64/142/162 70/238/162 65/143/162
f 76/144/163 88/177/163 93/145/163
f 57/126/164 56/255/164 72/147/164
f 59/149/165 75/176/165 76/144/165
f 58/128/166 57/126/166 73/148/166
f 56/122/167 55/121/167 71/150/167
f 60/152/168 76/257/168 91/153/168
f 80/155/169 79/163/169 104/156/169
f 115/158/170 114/258/170 80/159/170
f 117/161/171 116/237/171 78/162/171
f 113/164/172 77/259/172 92/165/172
f 115/158/173 81/160/173 82/167/173
f 114/169/174 117/161/174 79/163/174
f 86/170/90 85/175/90 99/171/90
f 75/131/175 74/130/175 86/170/175
f 73/148/92 72/147/92 84/174/92
f 75/176/176 87/188/176 88/177/176
f 74/130/94 73/148/94 85/175/94
f 72/151/95 71/150/95 83/178/95
f 116/180/177 118/260/177 92/181/177
f 89/154/178 91/153/178 71/183/178
f 91/153/179 93/261/179 83/185/179
f 89/141/180 90/140/180 66/186/180
f 87/188/181 97/262/181 96/189/181
f 85/190/182 84/263/182 100/191/182
f 88/193/102 96/264/102 100/194/102
f 98/198/103 99/265/103 100/266/103
f 100/266/112 96/196/112 98/198/112
f 93/145/183 88/177/183 102/199/183
f 87/173/105 86/170/105 98/172/105
f 81/160/106 106/207/106 107/202/106
f 77/203/107 101/267/107 104/204/107
f 81/160/108 80/159/108 105/206/108
f 106/210/109 105/268/109 104/269/109
f 104/269/109 101/208/109 106/210/109
f 82/211/184 107/270/184 101/212/184
f 78/162/185 109/271/185 110/213/185
f 94/214/103 95/272/103 103/215/103
f 83/185/186 93/261/186 103/217/186
f 84/219/114 94/273/114 102/220/114
f 83/178/115 95/274/115 94/222/115
f 111/223/109 108/275/109 110/224/109
f 77/226/116 79/276/116 110/227/116
f 92/165/187 111/232/187 109/229/187
f 92/165/188 77/259/188 108/231/188
f 66/233/189 90/236/189 118/166/189
f 68/138/190 67/136/190 117/161/190
f 69/119/191 115/158/191 112/168/191
f 65/235/192 113/164/192 118/166/192
f 67/136/193 66/135/193 116/237/193
f 68/118/194 114/258/194 115/158/194
f 70/238/195 112/132/195 113/134/195
f 30/239/196 28/277/196 127/115/196
f 32/240/127 30/239/127 128/113/127
f 28/65/197 26/90/197 120/86/197
f 32/240/129 126/114/129 125/108/129
f 34/74/198 125/106/198 124/107/198
f 36/77/199 124/107/199 123/104/199
f 38/79/132 123/104/132 122/102/132
f 42/82/133 40/245/133 122/243/133
f 44/87/200 42/82/200 121/97/200
f 26/90/201 44/246/201 119/84/201
